<svg xmlns="http://www.w3.org/2000/svg" xmlns:xlink="http://www.w3.org/1999/xlink" viewBox="0 0 134.22 25.91">
  <defs>
    <clipPath id="a">
      <rect width="135.88" height="25.91" fill="none"/>
    </clipPath>
  </defs>
  <title>Asset 21</title>
  <g clip-path="url(#a)">
    <g>
      <g style="isolation: isolate">
        <g style="isolation: isolate">
          <path d="M33.59,5.82h6.07A7.14,7.14,0,0,1,42,6.19a5.07,5.07,0,0,1,1.78,1.05,4.6,4.6,0,0,1,1.12,1.62A5.39,5.39,0,0,1,45.34,11v0a5.21,5.21,0,0,1-.47,2.27,4.63,4.63,0,0,1-1.28,1.63,5.56,5.56,0,0,1-1.91,1,8.09,8.09,0,0,1-2.34.33H36.86v4.45H33.59Zm5.85,7.49a2.66,2.66,0,0,0,1.91-.65,2.12,2.12,0,0,0,.68-1.6v0a2,2,0,0,0-.71-1.68,3,3,0,0,0-1.94-.57H36.86v4.54Z" fill="#87ddff"/>
          <path d="M46.7,5.82h6.79a5.86,5.86,0,0,1,4.33,1.51,4.59,4.59,0,0,1,1.27,3.39v0a4.66,4.66,0,0,1-.88,2.94,5.1,5.1,0,0,1-2.3,1.66l3.63,5.3H55.71l-3.18-4.75H50v4.75H46.7ZM53.28,13a2.71,2.71,0,0,0,1.86-.57,1.94,1.94,0,0,0,.65-1.53v0A1.9,1.9,0,0,0,55.1,9.3a3,3,0,0,0-1.89-.53H50V13Z" fill="#87ddff"/>
          <path d="M71.58,20.88a9.83,9.83,0,0,1-3.33-.58,8.81,8.81,0,0,1-3-1.79l1.93-2.31a9.67,9.67,0,0,0,2.09,1.32,5.58,5.58,0,0,0,2.34.49,2.85,2.85,0,0,0,1.58-.37,1.17,1.17,0,0,0,.56-1v0a1.28,1.28,0,0,0-.12-.56,1.19,1.19,0,0,0-.45-.46,4.7,4.7,0,0,0-.91-.42q-.59-.21-1.52-.45a18.52,18.52,0,0,1-2-.62,5.73,5.73,0,0,1-1.55-.84,3.38,3.38,0,0,1-1-1.24,4.3,4.3,0,0,1-.35-1.85v0a4.31,4.31,0,0,1,.38-1.84A4.19,4.19,0,0,1,67.3,6.84a4.79,4.79,0,0,1,1.64-.91A6.57,6.57,0,0,1,71,5.61a8.89,8.89,0,0,1,3,.49,8.72,8.72,0,0,1,2.51,1.4L74.85,10a10.76,10.76,0,0,0-2-1.07A5,5,0,0,0,71,8.49a2.31,2.31,0,0,0-1.43.37,1.13,1.13,0,0,0-.48.92v0a1.33,1.33,0,0,0,.14.63,1.25,1.25,0,0,0,.5.48,4.69,4.69,0,0,0,1,.4l1.58.45a15.25,15.25,0,0,1,2,.67,5.62,5.62,0,0,1,1.49.89,3.39,3.39,0,0,1,.91,1.22A4.13,4.13,0,0,1,77,16.24v0a4.6,4.6,0,0,1-.4,2,4,4,0,0,1-1.12,1.44,5,5,0,0,1-1.71.89A7.44,7.44,0,0,1,71.58,20.88Z" fill="#87ddff"/>
          <path d="M82.29,20.86a5.29,5.29,0,0,1-1.35-.16,2.41,2.41,0,0,1-1-.56,2.69,2.69,0,0,1-.68-1.05A4.71,4.71,0,0,1,79,17.44V12.06H77.63V9.3H79V6.39h3.22V9.3h2.67v2.76H82.21v4.88q0,1.11,1,1.11a3.15,3.15,0,0,0,1.59-.42V20.2a5,5,0,0,1-1.12.48A5.08,5.08,0,0,1,82.29,20.86Z" fill="#87ddff"/>
          <path d="M89.42,20.88a5,5,0,0,1-1.52-.22A3.55,3.55,0,0,1,86.66,20a3.19,3.19,0,0,1-.84-1.09,3.44,3.44,0,0,1-.31-1.5v0a3.57,3.57,0,0,1,.34-1.61,3.1,3.1,0,0,1,.94-1.12A4.24,4.24,0,0,1,88.24,14a7.23,7.23,0,0,1,1.86-.22,7.94,7.94,0,0,1,1.52.13,9.51,9.51,0,0,1,1.26.34V14a1.93,1.93,0,0,0-.61-1.55,2.73,2.73,0,0,0-1.82-.53,7.57,7.57,0,0,0-1.64.16,11.08,11.08,0,0,0-1.5.46l-.81-2.46a12.64,12.64,0,0,1,2-.66,10.29,10.29,0,0,1,2.46-.25,7,7,0,0,1,2.28.33,4.06,4.06,0,0,1,1.56.94A3.82,3.82,0,0,1,95.68,12a6.73,6.73,0,0,1,.3,2.07v6.6H92.86V19.44a4.47,4.47,0,0,1-1.42,1.05A4.68,4.68,0,0,1,89.42,20.88Zm1-2.23a2.85,2.85,0,0,0,1.84-.55,1.76,1.76,0,0,0,.69-1.44v-.57a5,5,0,0,0-.94-.31,5.09,5.09,0,0,0-1.11-.12,2.88,2.88,0,0,0-1.63.4,1.32,1.32,0,0,0-.59,1.17v0a1.19,1.19,0,0,0,.49,1A2.09,2.09,0,0,0,90.4,18.65Z" fill="#87ddff"/>
          <path d="M101.53,20.86a5.29,5.29,0,0,1-1.35-.16,2.41,2.41,0,0,1-1-.56,2.69,2.69,0,0,1-.68-1.05,4.71,4.71,0,0,1-.24-1.64V12.06H96.87V9.3h1.36V6.39h3.22V9.3h2.67v2.76h-2.67v4.88q0,1.11,1,1.11a3.15,3.15,0,0,0,1.59-.42V20.2a5,5,0,0,1-1.12.48A5.08,5.08,0,0,1,101.53,20.86Z" fill="#87ddff"/>
          <path d="M105.5,5.18h3.39V8H105.5Zm.08,4.11h3.22V20.67h-3.22Z" fill="#87ddff"/>
          <path d="M116.36,20.92a6.42,6.42,0,0,1-2.44-.46A5.94,5.94,0,0,1,112,19.22a5.81,5.81,0,0,1-1.28-1.87,5.7,5.7,0,0,1-.47-2.3v0a5.7,5.7,0,0,1,.47-2.3A5.87,5.87,0,0,1,112,10.83a6.13,6.13,0,0,1,2-1.27,6.35,6.35,0,0,1,2.46-.47,6.42,6.42,0,0,1,2.44.46,6,6,0,0,1,1.94,1.25,5.84,5.84,0,0,1,1.28,1.87,5.69,5.69,0,0,1,.47,2.3v0a5.7,5.7,0,0,1-.47,2.3,5.87,5.87,0,0,1-1.29,1.88,6.13,6.13,0,0,1-2,1.27A6.36,6.36,0,0,1,116.36,20.92Zm0-2.78a3,3,0,0,0,1.24-.24,2.73,2.73,0,0,0,.92-.67,2.93,2.93,0,0,0,.58-1,3.52,3.52,0,0,0,.2-1.2v0a3.37,3.37,0,0,0-.21-1.2,3,3,0,0,0-1.57-1.69,2.85,2.85,0,0,0-1.21-.25,3,3,0,0,0-1.24.24,2.74,2.74,0,0,0-.92.67,2.94,2.94,0,0,0-.58,1,3.52,3.52,0,0,0-.2,1.2v0a3.36,3.36,0,0,0,.21,1.2,3,3,0,0,0,1.56,1.69A2.82,2.82,0,0,0,116.4,18.15Z" fill="#87ddff"/>
          <path d="M123.81,9.3H127v1.63a6.92,6.92,0,0,1,.6-.69,4.22,4.22,0,0,1,.73-.59,3.63,3.63,0,0,1,.89-.41,3.76,3.76,0,0,1,1.1-.15,3.63,3.63,0,0,1,2.85,1.12,4.47,4.47,0,0,1,1,3.1v7.36H131V14.34a2.55,2.55,0,0,0-.51-1.72A1.81,1.81,0,0,0,129,12a1.92,1.92,0,0,0-1.47.58,2.45,2.45,0,0,0-.54,1.72v6.33h-3.22Z" fill="#87ddff"/>
        </g>
      </g>
      <g>
        <g>
          <path d="M21,5l0,0a8.24,8.24,0,0,1,2.29,5.9V11a8.63,8.63,0,0,1-1.46,4.87,12.13,12.13,0,0,1-4.12,3.65L16.65,20l3.78,5.9h2.39l.05,0-3.23-5A15.1,15.1,0,0,0,23.57,17a10.55,10.55,0,0,0,1.83-6v-.08a10.45,10.45,0,0,0-2.86-7.33,9.83,9.83,0,0,0-3.81-2.5A30.85,30.85,0,0,0,11,0V2.07A29.72,29.72,0,0,1,18,3,7.78,7.78,0,0,1,21,5Z" fill="#87ddff"/>
          <path d="M5.59,25.91v-21h4.83a9.42,9.42,0,0,1,2.75.37,5.68,5.68,0,0,1,2,1,4.3,4.3,0,0,1,1.2,1.59,5.44,5.44,0,0,1,.43,2.22v.05a5.36,5.36,0,0,1-.47,2.32A4.61,4.61,0,0,1,15,14.15a5.89,5.89,0,0,1-2.07,1,10,10,0,0,1-2.78.37h-3v2.07h3a12.1,12.1,0,0,0,3.35-.45,7.94,7.94,0,0,0,2.78-1.41,6.73,6.73,0,0,0,1.88-2.37,7.4,7.4,0,0,0,.67-3.22v-.05a7.49,7.49,0,0,0-.61-3.07,6.4,6.4,0,0,0-1.77-2.34,7.72,7.72,0,0,0-2.7-1.41,11.49,11.49,0,0,0-3.35-.46H3.52V25.91Z" fill="#87ddff"/>
          <path d="M12.35,21.54c-.86.14-1.68.24-2.28.3l2.68,4.07h2.48Z" fill="#87ddff"/>
        </g>
        <path d="M9.79,14.56H7.05L7,5.69H9.75a6.4,6.4,0,0,1,3.87,1.07,4,4,0,0,1,1.58,3.35v.07a4,4,0,0,1-1.57,3.26A6.16,6.16,0,0,1,9.79,14.56Zm-.67-2.07h.67a4.18,4.18,0,0,0,2.59-.69,1.9,1.9,0,0,0,.76-1.62v-.07a1.88,1.88,0,0,0-.75-1.68,4.43,4.43,0,0,0-2.64-.66H9.11Z" fill="#87ddff"/>
        <g>
          <path d="M13.62,21.29l3,4.62h2.48l-3.47-5.26A9.93,9.93,0,0,1,13.62,21.29Z" fill="#87ddff"/>
          <path d="M2.07,25.91V2.1h8.15a14.42,14.42,0,0,1,4.18.57,8.83,8.83,0,0,1,3.07,1.59,6.81,6.81,0,0,1,1.89,2.49A8.33,8.33,0,0,1,20,10.17v.07a8.21,8.21,0,0,1-.74,3.59,7.27,7.27,0,0,1-2,2.56A9.16,9.16,0,0,1,14.06,18a15.32,15.32,0,0,1-4.21.55H7v7.37H9.11v-5.3h.74A17.37,17.37,0,0,0,14.62,20a11.2,11.2,0,0,0,3.92-2,9.33,9.33,0,0,0,2.62-3.29,10.25,10.25,0,0,0,.94-4.49v-.07a10.38,10.38,0,0,0-.86-4.27,8.86,8.86,0,0,0-2.47-3.25A10.9,10.9,0,0,0,15,.68,16.48,16.48,0,0,0,10.22,0H0V25.91Z" fill="#87ddff"/>
        </g>
      </g>
    </g>
  </g>
</svg>
