<svg xmlns="http://www.w3.org/2000/svg" xmlns:xlink="http://www.w3.org/1999/xlink" viewBox="0 0 155.33 30.81">
  <defs>
    <clipPath id="a" transform="translate(0 0)">
      <rect width="166.43" height="30.81" fill="none"/>
    </clipPath>
  </defs>
  <title>Asset 20</title>
  <g clip-path="url(#a)">
    <g>
      <g style="isolation: isolate">
        <g style="isolation: isolate">
          <path d="M39.87,6.79h7a8.2,8.2,0,0,1,2.74.43,5.82,5.82,0,0,1,2,1.2,5.28,5.28,0,0,1,1.29,1.86,6.19,6.19,0,0,1,.45,2.4v0a6,6,0,0,1-.54,2.6,5.31,5.31,0,0,1-1.47,1.87,6.38,6.38,0,0,1-2.19,1.13,9.28,9.28,0,0,1-2.69.38H43.62v5.11H39.87Zm6.72,8.59a3,3,0,0,0,2.19-.74,2.44,2.44,0,0,0,.78-1.84v0a2.32,2.32,0,0,0-.82-1.92,3.45,3.45,0,0,0-2.23-.66h-2.9v5.21Z" transform="translate(0 0)" fill="#fff"/>
          <path d="M54.91,6.79H62.7a6.72,6.72,0,0,1,5,1.73,5.26,5.26,0,0,1,1.46,3.89v0a5.34,5.34,0,0,1-1,3.37,5.85,5.85,0,0,1-2.64,1.91l4.16,6.08H65.26l-3.65-5.45H58.66v5.45H54.91Zm7.54,8.28a3.11,3.11,0,0,0,2.13-.66,2.23,2.23,0,0,0,.74-1.75v0a2.17,2.17,0,0,0-.78-1.83,3.44,3.44,0,0,0-2.17-.61H58.66v4.89Z" transform="translate(0 0)" fill="#fff"/>
          <path d="M83.46,24.07a11.28,11.28,0,0,1-3.82-.67,10.11,10.11,0,0,1-3.41-2.06l2.21-2.65a11.12,11.12,0,0,0,2.4,1.51,6.41,6.41,0,0,0,2.69.56,3.27,3.27,0,0,0,1.81-.43A1.34,1.34,0,0,0,86,19.16v0a1.48,1.48,0,0,0-.13-.65,1.36,1.36,0,0,0-.51-.52,5.4,5.4,0,0,0-1-.49q-.67-.24-1.74-.51a21.21,21.21,0,0,1-2.34-.71,6.58,6.58,0,0,1-1.78-1,3.88,3.88,0,0,1-1.13-1.42,4.94,4.94,0,0,1-.4-2.12v0a4.94,4.94,0,0,1,.44-2.11A4.79,4.79,0,0,1,78.55,8a5.49,5.49,0,0,1,1.88-1,7.54,7.54,0,0,1,2.41-.36,10.19,10.19,0,0,1,3.44.56,10,10,0,0,1,2.88,1.61l-1.95,2.82A12.39,12.39,0,0,0,85,10.31a5.72,5.72,0,0,0-2.19-.45,2.65,2.65,0,0,0-1.64.43,1.29,1.29,0,0,0-.55,1.06v0a1.53,1.53,0,0,0,.16.72,1.43,1.43,0,0,0,.57.55,5.39,5.39,0,0,0,1.13.46q.72.22,1.82.51a17.56,17.56,0,0,1,2.31.77,6.45,6.45,0,0,1,1.71,1,3.9,3.9,0,0,1,1,1.4,4.75,4.75,0,0,1,.35,1.92v0A5.27,5.27,0,0,1,89.23,21,4.62,4.62,0,0,1,88,22.7a5.77,5.77,0,0,1-2,1A8.53,8.53,0,0,1,83.46,24.07Z" transform="translate(0 0)" fill="#fff"/>
          <path d="M95.75,24a6.08,6.08,0,0,1-1.55-.18A2.75,2.75,0,0,1,93,23.22a3.09,3.09,0,0,1-.78-1.2A5.4,5.4,0,0,1,92,20.13V13.95H90.4V10.78H92V7.45h3.7v3.33h3.07v3.16H95.66v5.59q0,1.27,1.19,1.27a3.62,3.62,0,0,0,1.83-.49v3a5.74,5.74,0,0,1-1.29.55A5.82,5.82,0,0,1,95.75,24Z" transform="translate(0 0)" fill="#fff"/>
          <path d="M103.93,24.07a5.78,5.78,0,0,1-1.74-.26,4.08,4.08,0,0,1-1.42-.77,3.67,3.67,0,0,1-1-1.25,4,4,0,0,1-.35-1.72v0a4.09,4.09,0,0,1,.39-1.85,3.55,3.55,0,0,1,1.08-1.29,4.86,4.86,0,0,1,1.66-.77,8.28,8.28,0,0,1,2.13-.26,9.11,9.11,0,0,1,1.74.15,10.93,10.93,0,0,1,1.45.39v-.22a2.22,2.22,0,0,0-.71-1.78,3.13,3.13,0,0,0-2.09-.61,8.68,8.68,0,0,0-1.89.18,12.69,12.69,0,0,0-1.72.52l-.93-2.82a14.55,14.55,0,0,1,2.24-.75,11.8,11.8,0,0,1,2.82-.29,8,8,0,0,1,2.62.38A4.65,4.65,0,0,1,110,12.1a4.39,4.39,0,0,1,1.07,1.79,7.73,7.73,0,0,1,.34,2.37v7.57h-3.58V22.42a5.14,5.14,0,0,1-1.63,1.2A5.37,5.37,0,0,1,103.93,24.07Zm1.12-2.56a3.27,3.27,0,0,0,2.11-.63,2,2,0,0,0,.79-1.66v-.66a5.66,5.66,0,0,0-1.08-.35,5.85,5.85,0,0,0-1.28-.13,3.3,3.3,0,0,0-1.87.46,1.52,1.52,0,0,0-.68,1.34v0a1.37,1.37,0,0,0,.56,1.17A2.4,2.4,0,0,0,105.05,21.52Z" transform="translate(0 0)" fill="#fff"/>
          <path d="M117.83,24a6.08,6.08,0,0,1-1.55-.18,2.75,2.75,0,0,1-1.19-.65,3.09,3.09,0,0,1-.78-1.2,5.4,5.4,0,0,1-.28-1.89V13.95h-1.56V10.78H114V7.45h3.7v3.33h3.07v3.16h-3.07v5.59q0,1.27,1.19,1.27a3.62,3.62,0,0,0,1.83-.49v3a5.74,5.74,0,0,1-1.29.55A5.82,5.82,0,0,1,117.83,24Z" transform="translate(0 0)" fill="#fff"/>
          <path d="M122.38,6.06h3.89V9.35h-3.89Zm.1,4.72h3.7v13h-3.7Z" transform="translate(0 0)" fill="#fff"/>
          <path d="M134.84,24.12a7.38,7.38,0,0,1-2.8-.52,6.83,6.83,0,0,1-2.23-1.44A6.68,6.68,0,0,1,128.34,20a6.54,6.54,0,0,1-.54-2.64v0a6.54,6.54,0,0,1,.54-2.64,6.74,6.74,0,0,1,1.48-2.15,7,7,0,0,1,2.24-1.46,7.29,7.29,0,0,1,2.82-.54,7.38,7.38,0,0,1,2.8.52,6.84,6.84,0,0,1,2.23,1.44,6.7,6.7,0,0,1,1.47,2.14,6.55,6.55,0,0,1,.54,2.64v0a6.55,6.55,0,0,1-.54,2.64,6.73,6.73,0,0,1-1.48,2.15,7,7,0,0,1-2.24,1.46A7.3,7.3,0,0,1,134.84,24.12Zm0-3.19a3.43,3.43,0,0,0,1.42-.28,3.14,3.14,0,0,0,1.06-.77,3.38,3.38,0,0,0,.67-1.13,4.05,4.05,0,0,0,.23-1.37v0A3.86,3.86,0,0,0,138,16a3.46,3.46,0,0,0-1.8-1.94,3.27,3.27,0,0,0-1.39-.29,3.43,3.43,0,0,0-1.42.28,3.15,3.15,0,0,0-1.06.77,3.37,3.37,0,0,0-.67,1.13,4,4,0,0,0-.23,1.38v0a3.85,3.85,0,0,0,.24,1.38,3.49,3.49,0,0,0,1.79,1.93A3.24,3.24,0,0,0,134.89,20.93Z" transform="translate(0 0)" fill="#fff"/>
          <path d="M143.38,10.78h3.7v1.86a7.93,7.93,0,0,1,.69-.8,4.83,4.83,0,0,1,.84-.67,4.16,4.16,0,0,1,1-.47,4.32,4.32,0,0,1,1.27-.17,4.17,4.17,0,0,1,3.27,1.29,5.13,5.13,0,0,1,1.16,3.55v8.45h-3.7V16.57a2.93,2.93,0,0,0-.58-2,2.08,2.08,0,0,0-1.66-.67,2.2,2.2,0,0,0-1.69.67,2.81,2.81,0,0,0-.62,2v7.26h-3.7Z" transform="translate(0 0)" fill="#fff"/>
        </g>
      </g>
      <g>
        <g>
          <path d="M25,5.92l0,0a9.81,9.81,0,0,1,2.72,7v.09A10.26,10.26,0,0,1,26,18.86a14.43,14.43,0,0,1-4.9,4.35l-1.3.59,4.49,7h2.83l.06,0-3.84-6A18,18,0,0,0,28,20.26a12.54,12.54,0,0,0,2.18-7.19V13a12.43,12.43,0,0,0-3.4-8.72,11.69,11.69,0,0,0-4.53-3A36.71,36.71,0,0,0,13.05,0V2.46A35.3,35.3,0,0,1,21.4,3.57,9.25,9.25,0,0,1,25,5.92Z" transform="translate(0 0)" fill="#0071bc"/>
          <path d="M6.65,30.81v-25h5.75a11.2,11.2,0,0,1,3.27.45A6.76,6.76,0,0,1,18,7.5a5.11,5.11,0,0,1,1.43,1.9A6.47,6.47,0,0,1,20,12v.06a6.37,6.37,0,0,1-.56,2.76,5.48,5.48,0,0,1-1.55,2A7,7,0,0,1,15.39,18a11.94,11.94,0,0,1-3.3.43H8.5v2.46h3.59a14.39,14.39,0,0,0,4-.53,9.45,9.45,0,0,0,3.32-1.67,8,8,0,0,0,2.23-2.82,8.8,8.8,0,0,0,.8-3.82V12a8.9,8.9,0,0,0-.73-3.64,7.61,7.61,0,0,0-2.11-2.79,9.18,9.18,0,0,0-3.21-1.68,13.67,13.67,0,0,0-4-.55H4.18V30.81Z" transform="translate(0 0)" fill="#0071bc"/>
          <path d="M14.68,25.61c-1,.17-2,.29-2.71.36l3.19,4.84h2.95Z" transform="translate(0 0)" fill="#0071bc"/>
        </g>
        <path d="M11.64,17.31H8.39l0-10.55h3.23A7.61,7.61,0,0,1,16.2,8a4.74,4.74,0,0,1,1.88,4v.09A4.73,4.73,0,0,1,16.22,16,7.33,7.33,0,0,1,11.64,17.31Zm-.8-2.46h.8A5,5,0,0,0,14.71,14a2.26,2.26,0,0,0,.91-1.93V12a2.24,2.24,0,0,0-.89-2,5.27,5.27,0,0,0-3.14-.78h-.76Z" transform="translate(0 0)" fill="#87ddff"/>
        <g>
          <path d="M16.19,25.32l3.62,5.49h2.95l-4.12-6.26A11.82,11.82,0,0,1,16.19,25.32Z" transform="translate(0 0)" fill="#87ddff"/>
          <path d="M2.47,30.81V2.49h9.69a17.15,17.15,0,0,1,5,.67A10.5,10.5,0,0,1,20.78,5,8.1,8.1,0,0,1,23,8a9.91,9.91,0,0,1,.8,4.08v.09A9.77,9.77,0,0,1,23,16.44a8.65,8.65,0,0,1-2.43,3,10.89,10.89,0,0,1-3.81,1.89,18.22,18.22,0,0,1-5,.66H8.37v8.77h2.46v-6.3h.88a20.66,20.66,0,0,0,5.68-.75,13.33,13.33,0,0,0,4.66-2.33,11.1,11.1,0,0,0,3.12-3.91,12.19,12.19,0,0,0,1.12-5.33v-.09a12.34,12.34,0,0,0-1-5.08,10.54,10.54,0,0,0-2.94-3.86A13,13,0,0,0,17.83.8,19.6,19.6,0,0,0,12.15,0H0V30.8Z" transform="translate(0 0)" fill="#87ddff"/>
        </g>
      </g>
    </g>
  </g>
</svg>
