<svg xmlns="http://www.w3.org/2000/svg" viewBox="0 0 526.14 134.88">
  <title>Asset 28</title>
  <g>
    <g>
      <path d="M497.14,12.25l4.76-4.77a2.05,2.05,0,0,1,2.9,0h0l12.69,12.69a4.11,4.11,0,0,1,1.2,2.9v84.06" fill="none" stroke="#cbcbcb" stroke-width="2.05"/>
      <rect x="511" y="106.88" width="15.14" height="1.8" rx="0.77" ry="0.77" fill="#afb9c5"/>
      <g>
        <path d="M500,9.45h0a8.47,8.47,0,0,1,0,12l-5.08,5.08-12-12L488,9.45A8.47,8.47,0,0,1,500,9.45Z" fill="#c5cfd6" fill-rule="evenodd"/>
        <ellipse cx="489.14" cy="20.38" rx="1.67" ry="8.47" transform="translate(128.85 351.84) rotate(-45)" fill="#f2f2f2"/>
      </g>
    </g>
    <g>
      <g>
        <path d="M78.86,12.92c1,3.74,2.33,12.13,1,13.45H71.32v0A6.32,6.32,0,0,1,65.69,20V13.87A6.32,6.32,0,0,1,72,7.54h.59A6.32,6.32,0,0,1,78.86,12.92Z" fill="#191847" fill-rule="evenodd"/>
        <path d="M69,18.86a8,8,0,0,1-2.12-5.72c.44-6.29,9.2-4.91,10.91-1.73s1.5,11.23-.7,11.8c-.88.23-2.75-.33-4.65-1.48l1.2,8.46H66.58Z" fill="#d4a181" fill-rule="evenodd"/>
        <path d="M70.91,17.8c.33,3.49.19,7.48-.77,8.43H61.61c-.48-8.26,4.12-5.06,4.12-12.83.29-.28.56-.56.82-.8v-.23q2.22-4.53,5.62-4.53a5.59,5.59,0,0,1,5.4,2.93c-.68,2.35-3.34,2.7-5.7,4.16a1.62,1.62,0,1,0-1,2.87Z" fill="#191847" fill-rule="evenodd"/>
      </g>
      <g>
        <path d="M55.23,83.44a69.38,69.38,0,0,0,18.26,3,24.56,24.56,0,0,0,14.26-4.56q-10.36-3-17.06-3T55.23,83.44Z" fill="#1f28cf" fill-rule="evenodd"/>
        <path d="M79.59,89.25a1.66,1.66,0,0,1-.17-.33c-.94-2.49-16-29.4-17.55-34.32h17c1.14,3.74,6.29,27.21,7,31.89,2.29,7.39,7,31.31,7.6,33s-2.93,3.56-3.87,1.42a182.34,182.34,0,0,1-6.7-18.61C81.41,96.86,80.19,92,79.59,89.25Z" fill="#ba8b72" fill-rule="evenodd"/>
        <path d="M65.68,92.53c-6.91,1.75-32.16,4.9-33.9,5.4s-3.35-3.17-1.14-4a182.34,182.34,0,0,1,19-5.39c4.71-1,9-1.74,11.9-2.2-.24-8.11-1.36-27.57-.63-31.78H76c-.7,4-6.64,33.44-7.75,36.39A2.55,2.55,0,0,1,65.68,92.53Z" fill="#d4a181" fill-rule="evenodd"/>
        <path d="M30.8,93a6.31,6.31,0,0,0-2-.14,14.76,14.76,0,0,0-2.24.66l2.88,16.33q2.22.27,2.14-1.14t-.1-2.33l2-8.19a.29.29,0,0,0-.21-.36h0L32,97.54a5.29,5.29,0,0,1-1-2,4.75,4.75,0,0,1,.21-1.87h0a.59.59,0,0,0-.42-.72Z" fill="#e4e4e4" fill-rule="evenodd"/>
        <path d="M88.54,120.59a6.31,6.31,0,0,0-.49,2,14.76,14.76,0,0,0,.27,2.32H104.9q.65-2.14-.75-2.31l-2.31-.31-7.71-3.44a.29.29,0,0,0-.39.15h0l-.5,1.2a5.29,5.29,0,0,1-2.1.6,4.75,4.75,0,0,1-1.81-.53h0a.59.59,0,0,0-.78.29Z" fill="#e4e4e4" fill-rule="evenodd"/>
        <path d="M61,54.6a31.81,31.81,0,0,1,18.82,0c2.06,9.39,7.06,13.12,7.94,27.52-10,5-22.35-3.54-32.64,1.3C52.17,76.64,56.28,60.32,61,54.6Z" fill="#2d70b6" fill-rule="evenodd"/>
      </g>
      <g>
        <path d="M89.51,42.92l11.61-1.58a25.31,25.31,0,0,1,6.41-2.62c.55,0,1.42.18.12,1.27s-2.62,2.28-2.39,2.86,1.44.36,1.64,1.25q.2.89-5.89.29L91.6,48.13ZM53,45.61l6.44,0q-10.59,23.84-11,25c-.68,1.69.76,4.25,1.38,5.64-2,.9-1.79-2.43-4.32-1.25-2.31,1.07-4.07,3-6.73,1.37-.33-.2-.69-1,.18-1.56,2.16-1.48,5.28-4.08,5.7-4.94Q45.5,68.11,53,45.61Z" fill="#d4a181" fill-rule="evenodd"/>
        <path d="M70.68,25.19l5,.34c1.24,11.23,8,18.33,23.15,15.93l2,14.47c-14.15,1.83-26.57-3.84-29.11-19.18A64.84,64.84,0,0,1,70.68,25.19Z" fill="#afb9c5" fill-rule="evenodd"/>
        <path d="M68.19,23.72l7.64,1.75C75.83,38.61,80,47,82.16,56.65H61.53c-.29,3.34-.47,6.77-.56,10.29H45.52Q50.77,39,67.69,23.72h.5Z" fill="#c5cfd6" fill-rule="evenodd"/>
        <path d="M64.79,37.91q-.8,12.28.94,18.75H61.53A101,101,0,0,1,64.79,37.91Z" fill-opacity="0.1" fill-rule="evenodd"/>
      </g>
    </g>
    <g>
      <g>
        <path d="M427.1,44.84a8.31,8.31,0,0,0,2.21-6c-.46-6.57-9.6-5.12-11.38-1.81s-1.57,11.72.73,12.31c.92.24,2.87-.34,4.85-1.54l-1.25,8.82h7.36Z" fill="#b28b67" fill-rule="evenodd"/>
        <path d="M414.68,32.47a1.59,1.59,0,0,1,1.12-1.13,1.47,1.47,0,0,1,.41,0s.06,0,.09,0a.45.45,0,0,0,0-.12,2.12,2.12,0,0,1,.63-1.09,2.74,2.74,0,0,1,1.65-.78,2.4,2.4,0,0,1,1,.13,3.92,3.92,0,0,1,.48.21s.2.14.25.13.16-.14.2-.17a2.91,2.91,0,0,1,1.82-.55,3.33,3.33,0,0,1,2.05.49,4.1,4.1,0,0,1,.37.31l.18.18.1.12c.05.07,0,.09.12,0a1.53,1.53,0,0,1,1-.22,2.19,2.19,0,0,1,.59.17c.06,0,.21.14.28.14s.21-.1.28-.13a2.33,2.33,0,0,1,1.18-.11,3.05,3.05,0,0,1,1.16.46,1.56,1.56,0,0,1,.43.39c.05.07.1.14.15.21s.1.08.12.12a2.54,2.54,0,0,1,.49-.22,1.21,1.21,0,0,1,.69,0,2.75,2.75,0,0,1,1.09.77,3.09,3.09,0,0,1,.4.54q.08.14.15.29a1.07,1.07,0,0,0,.07.15c0,.05.06.06.13.08a2.13,2.13,0,0,1,.91.61,2.09,2.09,0,0,1,.47,1,.51.51,0,0,0,0,.12s.09,0,.11,0l.27,0a2.25,2.25,0,0,1,.48.17,2.5,2.5,0,0,1,1.23,1.46,3,3,0,0,1,0,2,2,2,0,0,1-.15.3c0,.06,0,.06,0,.12s.07.13.1.2a2.87,2.87,0,0,1,.22.68,3.19,3.19,0,0,1,0,1.17,1.7,1.7,0,0,1-.18.52,1.48,1.48,0,0,1-.16.23l-.1.11-.06.06c0,.05,0,0,0,.09a3.48,3.48,0,0,0,.14.32c0,.11.08.22.12.33a4.88,4.88,0,0,1,.17.69,2.16,2.16,0,0,1-.15,1.34,1.34,1.34,0,0,1-.38.45,1.41,1.41,0,0,1-.25.15s-.1,0-.12.07,0,.14,0,.19a3.21,3.21,0,0,1,0,1.38,1.91,1.91,0,0,1-.76,1,2.36,2.36,0,0,1-2.36.07,2.47,2.47,0,0,1-.53-.36,1.74,1.74,0,0,1-1.82.37,2.62,2.62,0,0,1-1.66-1.37,1.11,1.11,0,0,1-1.76-.23,1.47,1.47,0,0,1-.15-.48c0-.09,0-.18,0-.26a1.36,1.36,0,0,0-.13-.33,1.81,1.81,0,0,1-.14-.65,3.31,3.31,0,0,1,0-.35,1.2,1.2,0,0,0,0-.31,1.41,1.41,0,0,0,.6-.07,1.18,1.18,0,0,0,.46-.32,2.69,2.69,0,0,0,.58-1.08,1.92,1.92,0,0,0-.71-2.36,4.44,4.44,0,0,0-2.08-.11c-.5.11-1.07,1.22-1.1,1.33s0,.14-.07.19-.35-.07-.44-.15a1.74,1.74,0,0,1-.39-.51,6.37,6.37,0,0,1-.53-1.3c-.1-.35-.16-.7-.29-1a1.59,1.59,0,0,0-.64-.83,5.65,5.65,0,0,0-1.1-.45,2.74,2.74,0,0,1-1-.56,1.41,1.41,0,0,1-.18-.2c0-.06-.08-.16-.14-.2s-.23.09-.32.14a3.65,3.65,0,0,0-1,1,6.27,6.27,0,0,0-.67,1.2,3.47,3.47,0,0,1-.45,1,1.91,1.91,0,0,1-1.14.09,1.44,1.44,0,0,1-.62-.54.84.84,0,0,1-.07-.55c0-.11.07-.21.09-.32a1,1,0,0,1,.08-.26.64.64,0,0,1,.4-.32,1.89,1.89,0,0,1-.43-.59,2.52,2.52,0,0,1-.22-.77.93.93,0,0,1,.12-.6,1.57,1.57,0,0,1,.51-.42,3.32,3.32,0,0,1-.71-.77A2.41,2.41,0,0,1,414.68,32.47Z" fill="#191847" fill-rule="evenodd"/>
      </g>
      <g>
        <path d="M450.19,95H414.91A4.91,4.91,0,0,0,410,99.91v28.22a4.91,4.91,0,0,0,4.91,4.91h35.28a4.91,4.91,0,0,0,4.91-4.91V99.91A4.91,4.91,0,0,0,450.19,95Zm-4.91,8.59a1.23,1.23,0,0,1,1.23,1.23v18.41a1.23,1.23,0,0,1-1.23,1.23H419.82a1.23,1.23,0,0,1-1.23-1.23V104.82a1.23,1.23,0,0,1,1.23-1.23Z" fill="#c5cfd6" fill-rule="evenodd"/>
        <path d="M388.07,132A171.74,171.74,0,0,0,396,111.74c2-6.84,3.44-12.87,3.82-15.11.9-5.36-6.89-5.67-7.92-3-1.56,4-4.28,17.29-7.54,37.31Zm45.59-27.3c-3.61-1.43-16.24-5.89-22.33-7.15-1.75-.36-3.45-.7-5-1-4.74-.91-7.2,7.65-2.63,8.3,11.37,1.64,27.49,3.33,28.87,3.52C434.47,108.65,435.93,105.61,433.66,104.71Z" fill="#b28b67" fill-rule="evenodd"/>
        <path d="M403.38,94.21l19.51-9.93V82.12h-2.32q-28.31,7.21-28.93,9.25v0l0,0c-3.74,5.14-6,30.25-6.72,32.14l7.17,1.07c2.74-10.17,11.51-17.25,11.28-29.42A4,4,0,0,0,403.38,94.21Z" fill="#1f28cf" fill-rule="evenodd"/>
        <path d="M421.27,100.11c1.78-.36,3.43-.68,4.83-.92,9.08-1.59,11.73-6.46,10.17-17.07H419.53c-2.73.79-16.94,6.74-24.32,9.91-4.88,2.1-3.34,9.66-.58,11.63a.27.27,0,0,0,.15.24c14.86,6.16,26.62,2.93,30.55,4l1.82-5.73Z" fill="#2b44ff" fill-rule="evenodd"/>
        <path d="M432.43,103.8a6.59,6.59,0,0,1,2.07.44,15.39,15.39,0,0,1,2.06,1.31L429,121.1q-2.3-.37-1.82-1.76t.77-2.31l.3-8.8a.31.31,0,0,1,.32-.3h0l1.35.09a5.52,5.52,0,0,0,1.52-1.69,5,5,0,0,0,.33-1.94h0a.61.61,0,0,1,.63-.6Z" fill="#e4e4e4" fill-rule="evenodd"/>
        <path d="M389.86,130.4a6.59,6.59,0,0,1,.51,2.06,15.39,15.39,0,0,1-.28,2.42h-17.3q-.67-2.23.78-2.41t2.41-.32l8-3.59a.31.31,0,0,1,.41.16h0L385,130a5.52,5.52,0,0,0,2.19.63,5,5,0,0,0,1.89-.55h0a.61.61,0,0,1,.81.3Z" fill="#e4e4e4" fill-rule="evenodd"/>
      </g>
      <g>
        <path d="M405.08,77.25l-8.69,8.48a26.34,26.34,0,0,0-6.22,3.57c-.36.44-.76,1.28,1,.9s3.52-.69,3.84-.14-.63,1.41,0,2.13q.59.73,4-4.63l9-5.33Zm38.57,1.2-6.41,0q5.94,19.17,6.41,20.34c.71,1.76-.79,4.44-1.43,5.88,2.09.94,1.87-2.53,4.51-1.3,2.41,1.12,4.24,3.15,7,1.43.34-.21.72-1-.19-1.63-2.26-1.55-5.51-4.26-5.95-5.15Q446.72,96.22,443.66,78.44Z" fill="#b28b67" fill-rule="evenodd"/>
        <path d="M425.44,51.54l-2.65-.45q-6.85,17.11-23.92,31.1l8.6,10.45C418.84,79.36,425.86,65.66,425.44,51.54Z" fill="#191847" fill-rule="evenodd"/>
        <path d="M437,84.88H413.38q8.21-20,8.21-33.91l7.13-1.06C434.31,58.91,435.9,70,437,84.88Z" fill="#dde3e9" fill-rule="evenodd"/>
        <path d="M428.87,49.91h-.47l-2.54.1-1.72,4.92q-.27,9-3.19,36.27h15.48q-.06,1.88-.2,3.8h11.51q-2.58-29.14-18.87-45.1Z" fill="#2f3676" fill-rule="evenodd"/>
        <path d="M435.4,75.13q-.66,11.74-3.31,16.19h4.33A80.94,80.94,0,0,0,435.4,75.13Z" fill-opacity="0.1" fill-rule="evenodd"/>
        <polygon points="432.98 81.81 425.34 78.26 425.34 81.81 432.98 81.81" fill="#fff" fill-opacity="0.2" fill-rule="evenodd"/>
      </g>
    </g>
    <g>
      <g>
        <path d="M249.4,26.95c3.2,0,4.36-3.83,6.18-5.93,1.3-1.5,3.52-1.05,4.17-3.16,1.65-5.29-2.77-9-8.53-9s-9.65,3.27-10.49,8.17A8.59,8.59,0,0,0,249.4,26.95Z" fill="#191847" fill-rule="evenodd"/>
        <path d="M249.76,23.53a7.58,7.58,0,0,1-2-5.44c.42-6,8.75-4.67,10.37-1.65s1.43,10.69-.67,11.23c-.84.22-2.62-.31-4.43-1.4l1.14,8h-6.71Z" fill="#b28b67" fill-rule="evenodd"/>
        <path d="M252.59,19.68a1.75,1.75,0,0,0-.82-.2A1.7,1.7,0,0,0,250,21.16a1.64,1.64,0,0,0,.35,1,5.38,5.38,0,0,0-.78,2.11c-1.41,0-6.58-5.35-1.43-10.39s12.57,2.15,10.34,2.57A15.61,15.61,0,0,0,252.59,19.68Z" fill="#191847" fill-rule="evenodd"/>
      </g>
      <g>
        <polygon points="245.21 57.52 255.73 91.94 260.83 121.2 264.83 121.2 259.44 57.52 245.21 57.52" fill="#997659" fill-rule="evenodd"/>
        <path d="M241.44,57.52c.71,18.9-.13,28.64-.29,30.36s-2.35,12.85-7.54,33.9l4.26-1.46c8.2-19.31,11-29.34,11.93-31.88s3.44-12.84,7.49-30.92Z" fill="#b28b67" fill-rule="evenodd"/>
        <path d="M233.65,120.29a6,6,0,0,0-.47,1.88,14,14,0,0,0,.25,2.21h15.78q.62-2-.71-2.2l-2.2-.29L239,118.62a.28.28,0,0,0-.37.14h0l-.47,1.14a5,5,0,0,1-2,.57,4.51,4.51,0,0,1-1.72-.5h0a.56.56,0,0,0-.74.28Z" fill="#e4e4e4" fill-rule="evenodd"/>
        <path d="M259.94,120.29a6,6,0,0,0-.47,1.88,14,14,0,0,0,.25,2.21H275.5q.62-2-.71-2.2l-2.2-.29-7.33-3.27a.28.28,0,0,0-.37.14h0l-.47,1.14a5,5,0,0,1-2,.57,4.51,4.51,0,0,1-1.72-.5h0a.56.56,0,0,0-.74.28Z" fill="#e4e4e4" fill-rule="evenodd"/>
        <polygon points="243.81 57.52 248.28 75.06 261.95 75.06 259.92 57.52 243.81 57.52" fill="#69a1ac" fill-rule="evenodd"/>
        <path d="M241.29,57.52q-2.21,6.62-.84,17.53h14l3.84-17.53Z" fill="#89c5cc" fill-rule="evenodd"/>
      </g>
      <g>
        <path d="M269.84,53.08l7.92,7.73a24,24,0,0,1,5.67,3.26c.33.4.69,1.16-.87.82s-3.21-.63-3.51-.13.57,1.28,0,1.95q-.54.66-3.64-4.22l-8.24-4.86Zm-35.17,1.09,5.85,0q-5.41,17.48-5.85,18.55c-.65,1.6.72,4,1.31,5.36-1.91.85-1.7-2.31-4.11-1.19-2.2,1-3.87,2.87-6.41,1.31-.31-.19-.65-.92.17-1.48,2.06-1.41,5-3.88,5.43-4.69Q231.87,70.38,234.66,54.17Z" fill="#b28b67" fill-rule="evenodd"/>
        <path d="M251.28,29.64l2.42-.41q6.25,15.61,21.81,28.36l-7.84,9.53C257.29,55,250.89,42.52,251.28,29.64Z" fill="#191847" fill-rule="evenodd"/>
        <path d="M240.73,60h21.54q-7.49-18.2-7.49-30.92l-6.5-1C243.18,36.36,241.74,46.47,240.73,60Z" fill="#dde3e9" fill-rule="evenodd"/>
        <path d="M248.15,28.15h.43l2.32.09,1.57,4.49q.25,8.21,2.91,33.07H241.26q.06,1.72.18,3.47h-10.5q2.36-26.58,17.2-41.12Z" fill="#2f3676" fill-rule="evenodd"/>
        <path d="M242.19,51.15q.6,10.71,3,14.76h-3.95A73.81,73.81,0,0,1,242.19,51.15Z" fill-opacity="0.1" fill-rule="evenodd"/>
        <polygon points="244.4 57.24 251.36 54.01 251.36 57.24 244.4 57.24" fill="#fff" fill-opacity="0.2" fill-rule="evenodd"/>
      </g>
    </g>
    <g>
      <g>
        <path d="M158.54,28.43a6.57,6.57,0,0,1-1.75-4.72c.36-5.19,7.59-4,9-1.43s1.24,9.27-.58,9.73c-.72.19-2.27-.27-3.84-1.22l1,7h-5.82Z" fill="#b28b67" fill-rule="evenodd"/>
        <path d="M162.47,19.26c-.77-.13-2.83-.21-3.21-.21s-.51.06-.65-.17-.07-.49-.11-.71-.1-.49-.16-.73a7.46,7.46,0,0,0-.77-2,6,6,0,0,0-2.87-2.59,9.2,9.2,0,0,0-4.35-.6,19.1,19.1,0,0,0-4.45,1.13,9.32,9.32,0,0,1-4.35.42A10.43,10.43,0,0,1,137.7,12a7.17,7.17,0,0,0-4.25-1.17,8.19,8.19,0,0,0-3.88,1.47,6.33,6.33,0,0,0-2.5,2.84,3.88,3.88,0,0,0,.35,4c1.3,1.7,3.72,2.14,5.74,2.09a11,11,0,0,0,3.41-.62,33,33,0,0,0,4.11-2.1,10.68,10.68,0,0,1,2-.8,2.24,2.24,0,0,1,2,.13,9.24,9.24,0,0,0,2,1.13,6.36,6.36,0,0,0,2.22.4,21.92,21.92,0,0,0,4.36-.78,9,9,0,0,1,3.61-.26c.5.1,1.22.31,1.4.83-3,.55-4.21,4.28-3.36,7,.46,1.48,3.22,3.21,4.3,2.43.68-.49.27-1.14,0-1.57-.51-.82-.69-1.87.26-2.44s1.68.68,1.69.67a10.5,10.5,0,0,0,3.5-2.72c1.32.08,1.52-.79,1.2-1.5S163.53,19.44,162.47,19.26Z" fill="#191847" fill-rule="evenodd"/>
      </g>
      <g>
        <path d="M151.84,57.91c.44,6,28.61,23.54,28.78,24q.11.33-8.77,20.78l2.46,1q13.62-21.66,12.92-24-1-3.3-21.86-21.74Z" fill="#b28b67" fill-rule="evenodd"/>
        <path d="M172.5,99.65l4,1.46c8.48-9.57,11.8-17.46,11.2-21.48q-.61-4-21.79-21.71H151.55c.49,13.82,26.61,24.08,27,24.67S175.42,88.95,172.5,99.65Z" fill="#2f3676" fill-rule="evenodd"/>
        <path d="M170.94,102.26a5.21,5.21,0,0,0-.94,1.39,12.17,12.17,0,0,0-.45,1.87l12.86,4.68q1.1-1.47.07-2l-1.71-.89-5-4.84a.24.24,0,0,0-.34,0h0l-.72.79a4.36,4.36,0,0,1-1.79-.12,3.91,3.91,0,0,1-1.25-.92h0a.49.49,0,0,0-.69,0Z" fill="#e4e4e4" fill-rule="evenodd"/>
        <polygon points="155.08 57.91 142.53 88.04 130.19 113.52 133.1 113.52 164.95 57.91 155.08 57.91" fill="#997659" fill-rule="evenodd"/>
        <path d="M130,112.34a5.21,5.21,0,0,0-.41,1.63,12.17,12.17,0,0,0,.22,1.91h13.68q.53-1.76-.62-1.9l-1.91-.25-6.36-2.83a.24.24,0,0,0-.32.12h0l-.41,1a4.36,4.36,0,0,1-1.73.5,3.91,3.91,0,0,1-1.49-.44h0a.49.49,0,0,0-.64.24Z" fill="#e4e4e4" fill-rule="evenodd"/>
        <path d="M131.31,108.22l6.47,1.21c5-7.35,25.93-37.5,28.22-51.53H151.6C143.94,68.05,136.07,100.75,131.31,108.22Z" fill="#5c63ab" fill-rule="evenodd"/>
      </g>
      <g>
        <path d="M176.91,51.26l8.79-3.86a20.83,20.83,0,0,1,4.46-3.5c.43-.14,1.16-.18.38,1s-1.55,2.38-1.24,2.78,1.22,0,1.57.61q.36.65-4.57,1.56l-6.58,5Zm-35.53,1.06,5,1q-7.5,14-8,14.81c-.82,1.26-.05,3.56.23,4.78-1.76.41-1.07-2.25-3.3-1.69-2,.51-3.77,1.81-5.67.05-.23-.22-.4-.89.39-1.23,2-.86,4.92-2.47,5.39-3.1Q136.32,65.66,141.38,52.33Z" fill="#b28b67" fill-rule="evenodd"/>
        <path d="M159.86,33.73l2.1-.36c4.57,4.43,6.43,15.08,9.48,16.49,2.88,1.33,7,0,11.81-1.7l1.49,3.32c-4.41,4.77-13.8,8.8-17.6,6.5C161,54.3,159.64,41.17,159.86,33.73Z" fill="#cd2d20" fill-rule="evenodd"/>
        <path d="M150.72,60.09h18.56c.85,0,.69-1.22.57-1.84-1.41-7.13-6.94-14.82-6.94-25l-5.35-.84C153.12,39.56,151.59,48.33,150.72,60.09Z" fill="#dde3e9" fill-rule="evenodd"/>
        <path d="M148.87,52.87q-5.68,10.24-9.54,14.74l-3.89-.76q3.76-23.31,21.77-34.41h2.12q7.21,24.57,4,32.75H146.59A61,61,0,0,1,148.87,52.87Z" fill="#ee6760" fill-rule="evenodd"/>
      </g>
    </g>
    <g>
      <g>
        <path d="M4.6.06C7.08,6,11.29,10,13.53,16.17A34.8,34.8,0,0,1,15.44,27.8c0,2.2,0,4.4,0,6.6s-.07,4.27-.25,6.4-.39,4.26-.48,6.41A17.68,17.68,0,0,1,14,52.37c-.45,1.22-1.6,1.4-1.91-.08A11.8,11.8,0,0,1,12,49.71c0-1.08.09-2.16.12-3.25.13-4.34,0-8.69,0-13s.63-8.48,0-12.7A29.62,29.62,0,0,0,8.95,11.4,52,52,0,0,1,5.07,2.81,15.12,15.12,0,0,1,4.49,0S4.57,0,4.6.06Z" fill="#c1dee2" fill-rule="evenodd"/>
        <path d="M3.92,11.68A4.72,4.72,0,0,1,5,13.07c.41.64.9,1.21,1.31,1.85.86,1.33,1.62,2.74,2.4,4.12a27,27,0,0,1,3.18,8.45,91,91,0,0,1,1,9.58c.26,3.38.52,6.79.55,10.18a36.37,36.37,0,0,1-.09,4.65c-.11.94-.54,1.74-1.49,1.73-2,0-3-2.27-3.38-4.11a34.65,34.65,0,0,1-.61-8.38c.11-3.35.69-6.65.95-10a24.35,24.35,0,0,0-1.1-10.33c-.61-1.68-1.33-3.32-2-5a16.14,16.14,0,0,0-.86-2.1,20.19,20.19,0,0,1-1.24-2.2Z" fill="#89c5cc" fill-rule="evenodd"/>
        <path d="M27.33,4.64l.19-.15a18.58,18.58,0,0,1-.75,2.06,16.82,16.82,0,0,0-.49,2c-.35,1.59-.76,3.15-1.09,4.76a31.54,31.54,0,0,0-.1,10.14c.41,3.34,1.05,6.67,1.36,10a45.92,45.92,0,0,1,.12,8.26c-.17,1.79-.71,3.93-2.18,3.75-.69-.09-1.06-.92-1.2-1.86-.23-1.52-.28-3.11-.37-4.62-.2-3.36-.24-6.72-.28-10,0-3.14-.14-6.34.07-9.41a28.83,28.83,0,0,1,1.74-8.07c.48-1.29.93-2.62,1.47-3.85.26-.59.57-1.11.83-1.71A3.65,3.65,0,0,1,27.33,4.64Z" fill="#c1dee2" fill-rule="evenodd"/>
        <path d="M4.55,21.42c.27-.45.86,1,1,1.22l-.11-.28a12.38,12.38,0,0,1,1.32,2.83c.3,1,.56,2,.84,3,.53,1.9,1.21,3.75,1.69,5.67a18.45,18.45,0,0,1,.47,5.64,48.2,48.2,0,0,0-.05,6.06,17.65,17.65,0,0,0,.59,2.78c.21.92.38,1.86.64,2.78.06-.12.07.28.07.31a1.92,1.92,0,0,1-.11.64,1.71,1.71,0,0,1-1.08,1.18c-1,.28-1.87-.61-2.18-1.54a25.51,25.51,0,0,1-.91-4.22,19.9,19.9,0,0,1-.18-3.89c.11-2.58.58-5.12.71-7.7a37.19,37.19,0,0,0-.88-8.17,23.86,23.86,0,0,0-.87-3.87,10.88,10.88,0,0,0-.65-1.42C4.65,22.21,4.37,21.74,4.55,21.42Z" fill="#c1dee2" fill-rule="evenodd"/>
        <path d="M12.42,17c-.11,3.21-.3,6.4-.73,9.58s-.94,6.48-1.36,9.73a65.78,65.78,0,0,0-.78,9.58c0,2.36-.35,6.35,2.27,7.52s3.23-3.86,3.4-5.52a62.29,62.29,0,0,0,.06-9.62c-.17-3.29-.44-6.57-.79-9.85-.38-3.64-.68-7.31-.92-11-.12-1.81-.15-3.61-.12-5.42A13.54,13.54,0,0,0,12.82,7l-.1.07" fill="#69a1ac" fill-rule="evenodd"/>
        <path d="M26.13,27.22c-.48.7-1,1.38-1.41,2.12A11.19,11.19,0,0,0,23,34c-.46,3.95-.09,8.21,0,12.27a6.42,6.42,0,0,0,.24,2.43c.3.72.85,1.26,1.38,1.26,1.13,0,1-2.78,1-4,0-2.14-.24-4.3-.22-6.44a44.72,44.72,0,0,1,.46-6.25,36,36,0,0,1,1.37-5.82c.08-.25.68-2.21.12-1.87" fill="#89c5cc" fill-rule="evenodd"/>
        <path d="M21.13,6.18c-.74,0-.74,3.71-.76,4.19-.08,1.72-.06,3.44-.11,5.16a93.62,93.62,0,0,1-.81,11.26c-.3,2-.66,4-1,6s-.89,4-1.14,6a42,42,0,0,0-.07,5.86,51.29,51.29,0,0,0,.35,5.86c.06.48.14,1,.22,1.43a11.36,11.36,0,0,0,.14,1.27,1.28,1.28,0,0,0,1.47.71c1.4-.26,2.3-2,2.78-3.3a30.91,30.91,0,0,0,1.26-5.15,45,45,0,0,0,.68-5.95,100.07,100.07,0,0,0-.35-12.16c-.16-2.25-.35-4.49-.63-6.72s-.65-4.44-.89-6.67c-.17-1.62-.34-3.25-.45-4.87,0-.39,0-2.88-.62-2.88" fill="#69a1ac" fill-rule="evenodd"/>
        <path d="M20.2,33.17c-.12-3.9-1.69-21-2-25.74-.09-1.18-.95-6.09-1.06-7.43-.3.38-.28,6.26-.27,7.62s-.16,2.65-.25,4-2.09,18.89-2.35,20.2c-.52,2.6-.86,5.26-1.13,7.91a34.44,34.44,0,0,0-.32,7.91,8,8,0,0,0,.41,1.74c.22.59.38,1.14.56,1.77a3.59,3.59,0,0,0,1.61,2.29c1.64.85,2.52-1.07,3-2.74a44.7,44.7,0,0,0,1.39-8.18,86.71,86.71,0,0,0,.49-9.33" fill="#89c5cc" fill-rule="evenodd"/>
      </g>
      <g>
        <rect x="2.81" y="44.64" width="25.55" height="25.55" rx="0.56" ry="0.56" fill="#f2f2f2"/>
        <rect y="47.45" width="2.81" height="31.73" rx="0.56" ry="0.56" fill="#c5cfd6"/>
        <rect x="14.04" y="47.45" width="2.81" height="31.73" rx="0.56" ry="0.56" fill="#c5cfd6"/>
        <rect x="28.36" y="47.45" width="2.81" height="31.73" rx="0.56" ry="0.56" fill="#c5cfd6"/>
      </g>
    </g>
    <g>
      <g>
        <path d="M334.35,35.62l-6.72-1.8,3.27-7.67c-2.1.6-4,.64-4.8.21-2-1.1-.11-8.75,2.32-11.31s11.11-1.63,9.94,4.41a7.74,7.74,0,0,1-3.46,4.86Z" fill="#b28b67" fill-rule="evenodd"/>
        <path d="M331.21,16.22c-3-.74-3.17-1.36-2.7-3.13a10.84,10.84,0,0,1,4.33,0A5.08,5.08,0,0,1,336,14.19a4.28,4.28,0,0,1,2.27,3.54,5.74,5.74,0,0,1-3.45,7.13c-.34-.72-.63-1.4-.87-2.05a1.71,1.71,0,0,0,.82-1.05,1.73,1.73,0,0,0-1.23-2.11l-.2,0a28.46,28.46,0,0,1-2.38,6.21c-1,1.45-4.17,1-5.25.72s-.57-1.38-.4-2c.1-.37,1.08.41,1.25-.21s-1.14-1.39-1.32-1.87-.16-1.27.37-1.13c.73.19,1.85,1.61,3.51,2.05q1.65.44,3.47-4.78A5.61,5.61,0,0,0,331.21,16.22Z" fill="#191847" fill-rule="evenodd"/>
      </g>
      <g>
        <polygon points="318.14 59 303.56 125.15 307.32 125.15 316.86 94.84 331.08 59 318.14 59" fill="#997659" fill-rule="evenodd"/>
        <path d="M319.78,59c3.43,12.05,7.69,32.24,9,34.43q1.31,2.19,29.63,18.64l2.59-2.76q-24-19.19-24.35-20c-.35-.79-2.56-17.74-2.71-30.34Z" fill="#b28b67" fill-rule="evenodd"/>
        <path d="M361.33,108.37a.58.58,0,0,0-.71.41h0a4.67,4.67,0,0,1-.75,1.7,5.21,5.21,0,0,1-1.78,1.2l-1.22-.39h0a.29.29,0,0,0-.36.2l-2.29,8q-.48.78-1.23,1.94t1.27,2l10.5-12.52a14.53,14.53,0,0,0-1.58-1.67,6.22,6.22,0,0,0-1.8-.88Z" fill="#e4e4e4" fill-rule="evenodd"/>
        <path d="M308.85,123.74a.58.58,0,0,0-.77-.29h0a4.67,4.67,0,0,1-1.78.52,5.21,5.21,0,0,1-2.06-.59l-.49-1.18h0a.29.29,0,0,0-.38-.15l-7.59,3.39-2.28.3q-1.37.17-.74,2.27h16.34a14.53,14.53,0,0,0,.26-2.29,6.22,6.22,0,0,0-.49-1.94Z" fill="#e4e4e4" fill-rule="evenodd"/>
        <polygon points="332.92 59 316.88 59 303.62 120.09 321.52 122.03 332.92 59" fill="#69a1ac" fill-rule="evenodd"/>
        <path d="M338.25,84q-.47-1.11-1.81-25H318.39q2.46,27.2,5.54,33.36t21.63,26.34l11.74-13.85Q338.72,85.15,338.25,84Z" fill="#89c5cc" fill-rule="evenodd"/>
      </g>
      <g>
        <path d="M310,57.66l-9.67,2.13q-4.61,3.79-4.93,3c-.32-.82.78-1.31.65-1.9s-1.85-.83-3.49-1-1-.8-.59-1.08a24.94,24.94,0,0,1,6.62-1.38l10.27-5Zm34.24,19.87c.26.9,2.85,3.94,4.69,5.74.74.72.26,1.4-.09,1.54-2.87,1.13-4.24-1-6.3-2.48-2.25-1.57-2.61,1.68-4.41.47.83-1.23,2.67-3.46,2.29-5.2q-.25-1.16-2.64-19.87l6,1Q343.75,75.69,344.29,77.53Z" fill="#b28b67" fill-rule="evenodd"/>
        <path d="M301.37,60.55l-2.11-3.81c12.63-6,19.05-20.48,29.59-26.73l2.39.86C329.33,44,321.26,61.58,301.37,60.55Z" fill="#d38931" fill-rule="evenodd"/>
        <path d="M334.23,29.83l-6.47-.13c-2.09,11.88-10.18,19.73-13.31,27.78-.27.7-.71,2.1.29,2.27l21.83,3.85C338,49.66,338,39.08,334.23,29.83Z" fill="#dde3e9" fill-rule="evenodd"/>
        <path d="M344.44,77.29l-4.68-.83A59.09,59.09,0,0,1,337.89,70l-17.18-3q-2.12-10.24,11.41-37.34l2,.24a4,4,0,0,1,.59.06c3.92.69,6.38-.46,8.71.72s2.76,3.6-.27,7.33a3.65,3.65,0,0,1-2.49,1.45Q348.85,56.15,344.44,77.29Z" fill="#f6bd6b" fill-rule="evenodd"/>
        <path d="M337.89,70l-6.38-1.12q2.36-2.73,4.36-9.33Q336.84,65.54,337.89,70Z" fill-opacity="0.1" fill-rule="evenodd"/>
      </g>
    </g>
  </g>
</svg>
