<svg xmlns="http://www.w3.org/2000/svg" width="197.9664" height="37.0926" viewBox="0 0 197.9664 37.0926">
  <defs>
    <style>
      .a {
        isolation: isolate;
      }

      .b {
        fill: #0071bc;
      }

      .c {
        fill: #87ddff;
      }
    </style>
  </defs>
  <title>Asset 27</title>
  <g>
    <g class="a">
      <g class="a js-loader-logo">
        <path class="b" d="M48.19,8.7311h9.03a10.6369,10.6369,0,0,1,3.5516.5526,7.5357,7.5357,0,0,1,2.6522,1.563,6.8326,6.8326,0,0,1,1.6732,2.415,8.0233,8.0233,0,0,1,.584,3.11v.0634a7.7513,7.7513,0,0,1-.6943,3.3779,6.8914,6.8914,0,0,1-1.91,2.4316,8.2885,8.2885,0,0,1-2.8419,1.4681,12.0574,12.0574,0,0,1-3.4888.4892H53.0516v6.63H48.19Zm8.7143,11.1453a3.9548,3.9548,0,0,0,2.8413-.9629,3.1612,3.1612,0,0,0,1.01-2.3836v-.0634a3.0146,3.0146,0,0,0-1.0578-2.4939A4.4772,4.4772,0,0,0,56.809,13.12H53.0516v6.7564Z"/>
        <path class="b" d="M67.7011,8.7311H77.804a8.72,8.72,0,0,1,6.441,2.2419,6.8275,6.8275,0,0,1,1.8944,5.0518v.0629a6.93,6.93,0,0,1-1.31,4.3729,7.59,7.59,0,0,1-3.4254,2.4784l5.3986,7.8931H81.1191L76.3833,23.76h-3.82V30.832h-4.862Zm9.7875,10.735a4.04,4.04,0,0,0,2.7625-.8526,2.8845,2.8845,0,0,0,.9629-2.2733v-.0629a2.8205,2.8205,0,0,0-1.01-2.3682,4.4624,4.4624,0,0,0-2.81-.7892H72.5631v6.3461Z"/>
        <path class="b" d="M104.7348,31.1474a14.6384,14.6384,0,0,1-4.9569-.868,13.1211,13.1211,0,0,1-4.42-2.6676L98.231,24.17a14.4211,14.4211,0,0,0,3.11,1.9573,8.3112,8.3112,0,0,0,3.4888.7263,4.25,4.25,0,0,0,2.3521-.5526,1.74,1.74,0,0,0,.8366-1.5315V24.707a1.91,1.91,0,0,0-.1743-.8366,1.7615,1.7615,0,0,0-.6647-.6789,7.0091,7.0091,0,0,0-1.3614-.6315q-.8707-.3148-2.2632-.6629a27.5849,27.5849,0,0,1-3.0394-.9155,8.544,8.544,0,0,1-2.3106-1.2475,5.0412,5.0412,0,0,1-1.4722-1.847,6.4123,6.4123,0,0,1-.5224-2.7464v-.0634a6.4062,6.4062,0,0,1,.5645-2.731,6.2285,6.2285,0,0,1,1.5837-2.1,7.1246,7.1246,0,0,1,2.4352-1.3572,9.7781,9.7781,0,0,1,3.1206-.4738,13.2059,13.2059,0,0,1,4.4671.7263,12.9618,12.9618,0,0,1,3.7414,2.0836l-2.5259,3.6625a16.02,16.02,0,0,0-2.9048-1.5944,7.4167,7.4167,0,0,0-2.8413-.584,3.4428,3.4428,0,0,0-2.131.552,1.6789,1.6789,0,0,0-.71,1.3738v.0629a1.9824,1.9824,0,0,0,.2057.9315,1.86,1.86,0,0,0,.7435.71,7.0263,7.0263,0,0,0,1.4722.6q.9339.2837,2.3587.6629a22.7928,22.7928,0,0,1,2.9913.9943,8.3623,8.3623,0,0,1,2.2158,1.3264,5.0517,5.0517,0,0,1,1.3614,1.8155,6.1588,6.1588,0,0,1,.46,2.4939v.0634a6.8465,6.8465,0,0,1-.5959,2.92,5.9968,5.9968,0,0,1-1.6626,2.147,7.483,7.483,0,0,1-2.5454,1.3258A11.053,11.053,0,0,1,104.7348,31.1474Z"/>
        <path class="b" d="M120.6793,31.116a7.8845,7.8845,0,0,1-2.0053-.2366,3.5681,3.5681,0,0,1-1.547-.8366,4.0158,4.0158,0,0,1-1.01-1.563,7.0193,7.0193,0,0,1-.3629-2.447V18.0134h-2.0207V13.9092h2.0207V9.5838h4.7992v4.3254h3.978v4.1043h-3.978v7.2557q0,1.648,1.547,1.6477a4.69,4.69,0,0,0,2.3676-.6315v3.8523a7.1934,7.1934,0,0,1-3.7882.9783Z"/>
        <path class="b" d="M131.2868,31.1474a7.5,7.5,0,0,1-2.2573-.3314,5.281,5.281,0,0,1-1.847-.9943,4.7525,4.7525,0,0,1-1.2469-1.6258,5.1263,5.1263,0,0,1-.4577-2.2259v-.0634a5.3048,5.3048,0,0,1,.5052-2.4,4.6062,4.6062,0,0,1,1.4046-1.6732,6.3182,6.3182,0,0,1,2.147-.9943,10.7379,10.7379,0,0,1,2.7625-.3314,11.8257,11.8257,0,0,1,2.2573.1891,14.2123,14.2123,0,0,1,1.879.5052v-.284a2.8776,2.8776,0,0,0-.9155-2.3047,4.0611,4.0611,0,0,0-2.7156-.7892,11.29,11.29,0,0,0-2.447.2366,16.4435,16.4435,0,0,0-2.2253.6789l-1.2-3.6625a18.869,18.869,0,0,1,2.9048-.9783,15.2963,15.2963,0,0,1,3.6625-.3789,10.3763,10.3763,0,0,1,3.3939.4892,6.0373,6.0373,0,0,1,2.3207,1.4046,5.6863,5.6863,0,0,1,1.3886,2.3207,10.02,10.02,0,0,1,.4423,3.0785V30.832h-4.6414V29.001a6.6659,6.6659,0,0,1-2.115,1.5624A6.96,6.96,0,0,1,131.2868,31.1474Zm1.4527-3.3151a4.2415,4.2415,0,0,0,2.731-.8206,2.6194,2.6194,0,0,0,1.0258-2.147v-.8526a7.3921,7.3921,0,0,0-1.4046-.4577,7.6089,7.6089,0,0,0-1.6578-.1737,4.2817,4.2817,0,0,0-2.431.6,1.97,1.97,0,0,0-.8841,1.7367V25.78a1.7728,1.7728,0,0,0,.7263,1.5155A3.1054,3.1054,0,0,0,132.7394,27.8323Z"/>
        <path class="b" d="M149.3148,31.116a7.8845,7.8845,0,0,1-2.0053-.2366,3.5681,3.5681,0,0,1-1.547-.8366,4.0158,4.0158,0,0,1-1.01-1.563,7.0193,7.0193,0,0,1-.3629-2.447V18.0134h-2.0207V13.9092h2.0207V9.5838h4.7992v4.3254h3.978v4.1043h-3.978v7.2557q0,1.648,1.547,1.6477a4.69,4.69,0,0,0,2.3676-.6315v3.8523a7.1934,7.1934,0,0,1-3.7882.9783Z"/>
        <path class="b" d="M155.2186,7.7842H160.27v4.262h-5.0518Zm.1263,6.125h4.7992V30.832h-4.7992Z"/>
        <path class="b" d="M171.383,31.2109a9.5684,9.5684,0,0,1-3.6311-.6789,8.8552,8.8552,0,0,1-2.8887-1.8624,8.6617,8.6617,0,0,1-1.91-2.7785,8.4729,8.4729,0,0,1-.6949-3.4259v-.0629a8.4749,8.4749,0,0,1,.6949-3.4259,8.72,8.72,0,0,1,1.9258-2.7939,9.1226,9.1226,0,0,1,2.9048-1.8944,9.4684,9.4684,0,0,1,3.6619-.6943,9.5725,9.5725,0,0,1,3.6311.6783,8.8788,8.8788,0,0,1,2.8887,1.863,8.6916,8.6916,0,0,1,1.91,2.7785,8.4936,8.4936,0,0,1,.6943,3.4254v.0634a8.49,8.49,0,0,1-.6943,3.4254,8.7361,8.7361,0,0,1-1.9264,2.7945,9.1265,9.1265,0,0,1-2.9042,1.8944A9.4735,9.4735,0,0,1,171.383,31.2109Zm.0629-4.1363a4.4411,4.4411,0,0,0,1.847-.3629,4.0744,4.0744,0,0,0,1.3738-.9943,4.3827,4.3827,0,0,0,.868-1.4681,5.25,5.25,0,0,0,.3-1.7841v-.0629a5.0124,5.0124,0,0,0-.316-1.7841,4.4848,4.4848,0,0,0-2.3361-2.51,4.2446,4.2446,0,0,0-1.8-.3789,4.46,4.46,0,0,0-1.847.3629,4.0874,4.0874,0,0,0-1.3732.9949,4.38,4.38,0,0,0-.8686,1.4681,5.2343,5.2343,0,0,0-.3,1.7835v.0634a5.0068,5.0068,0,0,0,.316,1.7835,4.5265,4.5265,0,0,0,2.3207,2.51A4.2187,4.2187,0,0,0,171.4459,27.0746Z"/>
        <path class="b" d="M182.4643,13.9092h4.7992v2.4192a10.364,10.364,0,0,1,.8995-1.0335,6.2807,6.2807,0,0,1,1.0892-.874,5.3985,5.3985,0,0,1,1.3264-.6042,5.58,5.58,0,0,1,1.6418-.2229,5.4088,5.4088,0,0,1,4.2466,1.6732,6.6628,6.6628,0,0,1,1.5,4.6094V30.832h-4.7992V21.4151a3.7967,3.7967,0,0,0-.7578-2.5668,2.7023,2.7023,0,0,0-2.147-.8663,2.85,2.85,0,0,0-2.1938.8663,3.6437,3.6437,0,0,0-.8052,2.5668V30.832h-4.7992Z"/>
      </g>
    </g>
    <g>
      <g>
        <path class="b" d="M30.09,7.1347l.031.0322a11.8038,11.8038,0,0,1,3.2726,8.4492v.1148a12.3533,12.3533,0,0,1-2.0959,6.9756,17.37,17.37,0,0,1-5.9016,5.23l-1.5622.7055,5.4074,8.45H32.653l.0771-.0492-4.6235-7.2252a21.6225,21.6225,0,0,0,5.63-5.428,15.0976,15.0976,0,0,0,2.6217-8.6611v-.1148A14.96,14.96,0,0,0,32.2638,5.1171a14.0765,14.0765,0,0,0-5.4523-3.5822C24.4679.6442,18.5542,0,15.7108,0V2.9641A42.51,42.51,0,0,1,25.7569,4.306,11.1352,11.1352,0,0,1,30.09,7.1347Z"/>
        <path class="b" d="M7.9975,37.0926V7.0321h6.9186a13.4835,13.4835,0,0,1,3.9326.5355,8.1359,8.1359,0,0,1,2.8348,1.4693,6.1505,6.1505,0,0,1,1.7207,2.2823,7.7868,7.7868,0,0,1,.6169,3.1815v.0722A7.6672,7.6672,0,0,1,23.3477,17.9a6.5968,6.5968,0,0,1-1.8628,2.357,8.4337,8.4337,0,0,1-2.96,1.48,14.3745,14.3745,0,0,1-3.9732.524H10.227v2.9642h4.3248a17.322,17.322,0,0,0,4.7966-.6393,11.3727,11.3727,0,0,0,3.9909-2.014,9.6282,9.6282,0,0,0,2.6855-3.3922,10.5944,10.5944,0,0,0,.9636-4.6065V14.5a10.7176,10.7176,0,0,0-.8749-4.3879,9.1589,9.1589,0,0,0-2.5361-3.357,11.0505,11.0505,0,0,0-3.86-2.0231,16.4541,16.4541,0,0,0-4.7966-.6679H5.0333V37.089Z"/>
        <path class="b" d="M17.6726,30.83c-1.2265.2034-2.4025.3443-3.2653.4329l3.8415,5.8287h3.5507Z"/>
      </g>
      <path class="c" d="M14.012,20.8419H10.0983l-.031-12.6957h3.8895A9.1622,9.1622,0,0,1,19.5019,9.672a5.7037,5.7037,0,0,1,2.2665,4.7923v.105a5.6879,5.6879,0,0,1-2.2428,4.6685A8.8225,8.8225,0,0,1,14.012,20.8419Zm-.9587-2.9641h.9587a5.99,5.99,0,0,0,3.7006-.986,2.7164,2.7164,0,0,0,1.0929-2.3224v-.1026a2.6982,2.6982,0,0,0-1.0674-2.41,6.3424,6.3424,0,0,0-3.78-.9429h-.92Z"/>
      <g>
        <path class="c" d="M19.49,30.4818l4.3558,6.6108h3.5507l-4.9647-7.5348A14.2236,14.2236,0,0,1,19.49,30.4818Z"/>
        <path class="c" d="M2.97,37.0926V2.9988l11.6623-.003a20.648,20.648,0,0,1,5.9787.8112,12.6435,12.6435,0,0,1,4.4013,2.2708,9.7529,9.7529,0,0,1,2.7128,3.57,11.9308,11.9308,0,0,1,.9654,4.9071v.105a11.7558,11.7558,0,0,1-1.0546,5.1354,10.41,10.41,0,0,1-2.9241,3.6709,13.115,13.115,0,0,1-4.5853,2.28,21.9365,21.9365,0,0,1-6.0279.7893H10.0734L10.0673,37.09h2.9642l.0043-7.5895h1.0565a24.8676,24.8676,0,0,0,6.8427-.9059,16.044,16.044,0,0,0,5.6138-2.8087A13.362,13.362,0,0,0,30.3,21.0812,14.6781,14.6781,0,0,0,31.6512,14.66v-.1062A14.8633,14.8633,0,0,0,30.426,8.4328a12.6848,12.6848,0,0,0-3.5337-4.646,15.6,15.6,0,0,0-5.425-2.819,23.5978,23.5978,0,0,0-6.84-.94L0,.0322V37.09Z"/>
      </g>
    </g>
  </g>
</svg>
